<svg xmlns="http://www.w3.org/2000/svg" viewBox="0 0 459.07 284.88"><defs><style>.cls-1{isolation:isolate;}.cls-14,.cls-2,.cls-24,.cls-3,.cls-30,.cls-31,.cls-32,.cls-33,.cls-34,.cls-6,.cls-7{fill:#438aca;}.cls-2{stroke:#438aca;stroke-miterlimit:10;}.cls-4{fill:#fff;}.cls-5{opacity:0.4;mix-blend-mode:multiply;}.cls-33,.cls-34,.cls-6{font-size:73.76px;}.cls-14,.cls-24,.cls-30,.cls-31,.cls-32,.cls-33,.cls-34,.cls-6,.cls-7{font-family:AgencyFB-Reg, Agency FB;}.cls-6{letter-spacing:0em;}.cls-24,.cls-30,.cls-7{font-size:22.84px;}.cls-7{letter-spacing:-0.06em;}.cls-8{letter-spacing:-0.06em;}.cls-9{letter-spacing:-0.04em;}.cls-10{letter-spacing:-0.06em;}.cls-11{letter-spacing:-0.04em;}.cls-12{letter-spacing:-0.04em;}.cls-13{letter-spacing:-0.05em;}.cls-14{font-size:23.27px;letter-spacing:-0.02em;}.cls-15{letter-spacing:-0.04em;}.cls-16{letter-spacing:-0.05em;}.cls-17{letter-spacing:-0.04em;}.cls-18{letter-spacing:-0.05em;}.cls-19{letter-spacing:-0.02em;}.cls-20{letter-spacing:-0.03em;}.cls-21{letter-spacing:-0.03em;}.cls-22{letter-spacing:-0.03em;}.cls-23{letter-spacing:-0.04em;}.cls-24{letter-spacing:-0.06em;}.cls-25{letter-spacing:-0.05em;}.cls-26{letter-spacing:-0.04em;}.cls-27{letter-spacing:-0.04em;}.cls-28{letter-spacing:-0.06em;}.cls-29{letter-spacing:-0.06em;}.cls-30{letter-spacing:-0.06em;}.cls-31{font-size:31.82px;letter-spacing:-0.04em;}.cls-32{font-size:73.67px;letter-spacing:0em;}.cls-33{letter-spacing:0em;}.cls-34{letter-spacing:0em;}</style></defs><g class="cls-1"><g id="Capa_1" data-name="Capa 1"><path class="cls-2" d="M230.77,79.16a63.31,63.31,0,0,0-13.93-9.29,66.5,66.5,0,0,0-18.71-5.68V24.13a5,5,0,0,0-1-3.36,5.13,5.13,0,0,0-3-1.87H150.32a4,4,0,0,0-2.4,1.73,4,4,0,0,0-.57,2.47V62.9a88.37,88.37,0,0,0-25.67,11.36L94.19,46.06a5,5,0,0,0-3.8-1.43,4.91,4.91,0,0,0-3.16,1.5l-29,28.71a4.68,4.68,0,0,0-1.74,3.37A4.79,4.79,0,0,0,58.26,82L85.4,109.13a59.57,59.57,0,0,0-5.71,11.22,58.94,58.94,0,0,0-3.48,14.52H35.32a5,5,0,0,0-3.87,1.5A4.75,4.75,0,0,0,30.29,139v42.78a3.77,3.77,0,0,0,4,4.11H75.16a72.63,72.63,0,0,0,11,25.63L56.84,240.32a3.74,3.74,0,0,0-1.44,2.55A3.85,3.85,0,0,0,56.71,246l29.68,29.55a4.76,4.76,0,0,0,2.88,1.29,4.87,4.87,0,0,0,3.57-1.29l27.87-28A106.41,106.41,0,0,0,147,258.94l.47,39.58a4.07,4.07,0,0,0,1,3,4,4,0,0,0,2.5,1.25h41.68a4.43,4.43,0,0,0,3.19-1.11,4.5,4.5,0,0,0,1.46-3q.12-20.32.25-40.65a89.24,89.24,0,0,0,33.29-15,2,2,0,0,0,0-2.45l-4.38-4.77a4,4,0,0,0-3.62.77,70.32,70.32,0,0,1-32.25,13.55,3.84,3.84,0,0,0-2.05,1.31,3.69,3.69,0,0,0-.79,1.79q-.08,19.8-.13,39.61H156.84l.32-38.07a3.58,3.58,0,0,0-.39-2.22,3.71,3.71,0,0,0-1.83-1.65,95,95,0,0,1-31.76-13.25,4.51,4.51,0,0,0-2.74-1.26,4.57,4.57,0,0,0-3.44,1.26L89.9,264.74l-21.58-22,26.81-26.71a4.62,4.62,0,0,0,1.45-3.48,4.56,4.56,0,0,0-1.16-2.81A70.31,70.31,0,0,1,83,180.35a3.93,3.93,0,0,0-.87-2.85,4,4,0,0,0-3.1-1.4l-38.8-.1V145.81H78.19A5.7,5.7,0,0,0,82,144a5.57,5.57,0,0,0,1.4-3.39A67,67,0,0,1,94.45,113a7.66,7.66,0,0,0,0-9.24l-26-25.65L90.1,56.58l26.42,26.81a7,7,0,0,0,7.74,0,76,76,0,0,1,28.55-11.71A6.4,6.4,0,0,0,156,69.74a6,6,0,0,0,1.4-4V28.9l29.91-.09.09,38.9a5.05,5.05,0,0,0,1.46,2.9A5.24,5.24,0,0,0,192.87,72,71.36,71.36,0,0,1,222.1,84.65a5.19,5.19,0,0,0,2.51.67,5.08,5.08,0,0,0,2.42-.58l3.74-3.87Z" transform="translate(-29.78 -18.4)"/><path class="cls-2" d="M216.84,99.81c-4.61-3.55-24.57-18.09-52.65-15.49a75.25,75.25,0,0,0-43.87,19.87c-4.84,4.46-23.07,22.38-24.77,51.62-1.6,27.54,12.54,46.62,16.51,51.61a77.23,77.23,0,0,0,39.49,26.06,76.22,76.22,0,0,0,41.55-.25,73.43,73.43,0,0,0,22.19-11.1l-7.87-9.94a52.32,52.32,0,0,1-17.68,9.55c-11.76,3.65-21.58,2-27.61.91s-19.95-3.78-32.9-15.36a64.35,64.35,0,0,1-20.39-38.19,63,63,0,0,1,5-35.23,65.2,65.2,0,0,1,16-21c4.14-3.63,16.38-14.07,35.23-16.13,23.35-2.55,40.42,9.56,44.51,12.64Z" transform="translate(-29.78 -18.4)"/><path class="cls-2" d="M206.77,210.52a54.43,54.43,0,0,1-15.35,8.13,56.78,56.78,0,0,1-22.84,2.58,57.15,57.15,0,0,1-45-24.39,58.93,58.93,0,0,1-10.71-21.16,58.2,58.2,0,0,1-.78-25.55,60.27,60.27,0,0,1,11.23-24.9A64.27,64.27,0,0,1,141,108.71a61,61,0,0,1,19.87-7.87,60,60,0,0,1,25.55.39,59.4,59.4,0,0,1,21.67,10.06l-5.93,8.65a46.16,46.16,0,0,0-6.84-4.26,51.84,51.84,0,0,0-20.13-5.16,48,48,0,0,0-23.61,3.87,49.2,49.2,0,0,0-13.16,9,49.66,49.66,0,0,0-9,10.58,49.16,49.16,0,0,0-7.09,21.94,47.63,47.63,0,0,0,18.32,44.25,52.44,52.44,0,0,0,18.58,9.68,45.48,45.48,0,0,0,25.16.65,43.41,43.41,0,0,0,15.74-8.13Z" transform="translate(-29.78 -18.4)"/><circle class="cls-3" cx="174.01" cy="142.6" r="33.39"/><path class="cls-4" d="M175.65,144.17c.23-.24.1-.36.44-.37a2.36,2.36,0,0,0,1.45-.43c-.13-.11-.43-.11-.36-.37.21,0,.43,0,.64,0a3.88,3.88,0,0,1,.76-.12c.28,0,.78.08,1-.17a1.29,1.29,0,0,0,.11-.68c-.2,0-.41-.16-.62,0s-.22.35-.38.45c-.34.21-.58,0-.53-.34-.25,0-.55.05-.65-.23s.17-.55-.17-.6a.55.55,0,0,0-.22,0c-.17.22-.33.45-.49.67,0,.2,0,.33-.29.42-.48.71-.94,1.44-1.37,2.19A1.79,1.79,0,0,0,175.65,144.17Z" transform="translate(-29.78 -18.4)"/><path class="cls-4" d="M179.5,148.89a3.32,3.32,0,0,1,.89-.22c.55-.1,1.27.33,1.79,0,.13-.08.19-.21.33-.29a3,3,0,0,1,.45-.15c.26-.1.59-.22.65-.53.09-.58-.69-.36-1-.41,0-.09.2-.19.22-.28s-.1-.19-.19-.34a1,1,0,0,1,0-.84c.07-.27,0-.65-.26-.74s-.49.26-.72.42-.49.19-.62,0-.06-.57-.14-.75c-.16-.4-.31-.43-.73-.47a5.3,5.3,0,0,0-.8,0,.56.56,0,0,0-.56.46c0,.12.07.24,0,.36s-.3.13-.43.2c-.37.19-.1.31-.06.63a.67.67,0,0,1-.45.7,2.55,2.55,0,0,0-.59.4c-.12.11-.22.13-.29.29s0,.28-.14.42-.37.56-.68.49a.5.5,0,0,1-.34-.57c0-.26.26-.48.2-.77s-.43-.26-.7-.34a3.51,3.51,0,0,1-.91-.45,1.13,1.13,0,0,0-.28-.12,32.85,32.85,0,0,0-3.28,10.46c.22,0,.48-.1.63,0s.12.5.18.72.11.23.13.36,0,.28,0,.4c0,.32.3.38.55.23a.92.92,0,0,0,.36-.77c0-.4-.2-.68-.25-1-.08-.56.61-.52.9-.73s.4-.68.74-.88.65-.2.82-.54-.26-1.24.26-1.36c.18-.05.24.13.39.11s.36-.31.46-.43a.89.89,0,0,1,.76-.36.93.93,0,0,0,.82-.46c.06-.12,0-.28.1-.4s.17-.1.39-.16.65-.4,1-.52c.17-.06.7-.26.8-.09s-.5.18-.6.41c-.23.57.78-.1.88-.14.28-.11,1,0,.87-.57a1.54,1.54,0,0,0-.48.05c-.27.05-.2.09-.36-.08a.44.44,0,0,1,0-.65c.24-.27.38-.37-.14-.42a1.11,1.11,0,0,0-.48,0c-.07,0-.31.24-.38.22C178.82,149.32,179.38,149,179.5,148.89Z" transform="translate(-29.78 -18.4)"/><path class="cls-4" d="M170.74,162a.37.37,0,0,0-.18-.19q0,.64.06,1.29l.06-.33C170.71,162.53,170.84,162.15,170.74,162Z" transform="translate(-29.78 -18.4)"/><path class="cls-4" d="M181.36,181.87c-.06-.13-.56-.53-.22-.59.05,0,.32.15.4.16a.81.81,0,0,0,.49,0,1.38,1.38,0,0,0,.72-.81.94.94,0,0,1,.37-.53,1.87,1.87,0,0,0,.56-1.64c0-.57-.13-1.11.64-1.19a1.27,1.27,0,0,0,.39-.06,2,2,0,0,1,.4-.17c.39-.07.43-.16.62-.51s.29-.52.4-.8a4,4,0,0,0,.18-1.09c0-.31.13-.6.15-.91s-.05-.61.16-.86.43-.32.58-.62a2.8,2.8,0,0,0,.46-1.36,3,3,0,0,0,0-.79c-.11-.31-.32-.16-.57-.23-.53-.15-.49-.91-1.07-1-.23,0-.48,0-.72,0a4.43,4.43,0,0,0-.89,0c0-.35-.4-.55-.65-.67s-.08-.1-.27-.07a1.09,1.09,0,0,0-.25.1,2.08,2.08,0,0,0-.48.28c0-.22.16-.35.11-.56-.68-.29-1,.22-1.41.58-.13-.31,0-.42.26-.61a.7.7,0,0,0,.28-.5,3.39,3.39,0,0,0-.28-1.31c-.11-.38-.26-.35-.61-.35a3,3,0,0,1-.73-.05c-.9-.23-1.22-1.2-2-1.49a7.14,7.14,0,0,0-1.22-.25,4,4,0,0,1-.57-.15c-.28-.08-.35-.25-.54-.42a.54.54,0,0,0-.6,0c-.16,0-.66.29-.34.45a.66.66,0,0,1,0,.44c-.11.18-.33.14-.42.29a.6.6,0,0,1-.18-.71c.08-.24.39-.41.37-.68-.26,0-.44.24-.65.33a2.65,2.65,0,0,0-.61.3,1.21,1.21,0,0,0-.24.21c-.06.1-.07.24-.16.33a.68.68,0,0,1-.29.11c-.22,0-.1.07-.29-.06s-.31-.16-.62-.09a6.89,6.89,0,0,0-.7.21c-.16.06,0,.18-.25.05a1.2,1.2,0,0,1-.26-.29l-.07-.11c0,.26.05.52.08.77s.44.46.69.34.17-.44.18-.65a1,1,0,0,1,.7.1c.21.16.18.41.31.64a1.33,1.33,0,0,1-.23,1.49,8.34,8.34,0,0,0-.85,1.22.84.84,0,0,0-.14.4c0,.25.09.17.15.34a.46.46,0,0,1,0,.38,35.68,35.68,0,0,0,1.21,3.84s0,0,0,0c.13.23.33.45.47.68s.2.38.58.4.52.17.84.42c.65.52,1.15.87.94,1.71a4.36,4.36,0,0,0,.09,2.35,1.63,1.63,0,0,1,.08.37,33.36,33.36,0,0,0,3.69,4.75c.09.05.18.07.31-.07s0-.34.12-.44.26-.08.43-.1C180.82,183,181.65,182.48,181.36,181.87Z" transform="translate(-29.78 -18.4)"/><path class="cls-4" d="M173.62,160.28a.74.74,0,0,0,.39.05c0-.09.13-.19.11-.29s-.2-.17-.3-.21a5.37,5.37,0,0,1-.65-.29,3.28,3.28,0,0,0-.62-.37c-.31-.1-.63-.1-.94-.18s-.21,0-.38,0-.22,0-.31,0h0c-.07,0-.39.23-.31.33s.4-.05.5-.11c.35-.23.64,0,1,.07a1.77,1.77,0,0,1,.45.18c.07.06.27.2.29.29s-.22.14-.14.32.43.14.58.13A1.22,1.22,0,0,1,173.62,160.28Z" transform="translate(-29.78 -18.4)"/><path class="cls-4" d="M175.76,160.46c-.15-.14-.26-.12-.46-.12a.93.93,0,0,1-.6-.12v0c-.15,0-.06.19,0,.25s.09.18-.08.22-.29-.05-.4,0a.12.12,0,0,0,0,.24c.2.07.47-.09.67-.06s.08,0,.12.06a.81.81,0,0,0,.22,0,1.24,1.24,0,0,0,.43,0c.08,0,.23-.22.09-.23C176,160.72,175.85,160.54,175.76,160.46Z" transform="translate(-29.78 -18.4)"/><path class="cls-4" d="M173,160.69v0h0Z" transform="translate(-29.78 -18.4)"/><path class="cls-4" d="M172.57,160.83c.05,0,.1,0,.15,0s.07.07.11.11a.4.4,0,0,0,.33.08c.13,0,.18-.07.05-.17s-.2,0-.22-.15A.48.48,0,0,0,172.57,160.83Z" transform="translate(-29.78 -18.4)"/><path class="cls-4" d="M176.38,160.89c.05.11.11.05.2.07s.13.08.24.08.33,0,.31-.26c-.2,0-.24.12-.43,0l.06,0C176.58,160.68,176.49,160.74,176.38,160.89Z" transform="translate(-29.78 -18.4)"/><path class="cls-4" d="M182.18,149.56c.2.07.43-.13.66-.09s.28.16.48.13.43-.18.41-.36-.31-.12-.47-.22a.36.36,0,0,1-.13-.23c0-.15,0-.11.07-.23s.12-.15-.08-.17-.16.05-.21.14c-.29.09-.38.56-.57.75S181.93,149.48,182.18,149.56Z" transform="translate(-29.78 -18.4)"/><path class="cls-4" d="M179.71,141.07c-.21-.15.25-.31.26-.38s-.45,0-.53,0-.43.26-.65.36-.38.22-.1.36a1.71,1.71,0,0,0,.64.09,4.76,4.76,0,0,1,.64.11c.21,0,.3.16.48.2s.38-.19.58-.22a.74.74,0,0,1,.59.29c.12.14.16.32.3.42s.23.09.33.17.25.31.14.48-.26.1-.4,0a.74.74,0,0,0-.42-.15.69.69,0,0,0-.25,0,.8.8,0,0,0-.21.2.94.94,0,0,1-.4.31c-.21.05-.58-.13-.77,0s-.11.18,0,.23.32-.05.41-.06a1,1,0,0,1,.63.09c.16.11.21.37.36.52a.93.93,0,0,0,.72.28c.11,0,.31,0,.26-.15s-.25-.07-.31-.15a.51.51,0,0,1,0-.3c.13-.11.28.08.37.12s.49.09.55-.13-.06-.16-.11-.26a.61.61,0,0,1-.08-.34c0-.61.61-.14.91-.06s.57-.17.37-.41-.43-.13-.58-.3a.63.63,0,0,1-.17-.38c0-.1.13-.16.13-.23s-.31-.29-.45-.32-.34,0-.48-.19-.13-.33-.45-.28a1,1,0,0,1-.63,0c-.2-.1-.28-.28-.54-.32a.62.62,0,0,0-.56.17C180.18,141,179.84,141.17,179.71,141.07Z" transform="translate(-29.78 -18.4)"/><path class="cls-4" d="M195.68,140.35a1.33,1.33,0,0,0,.7-.53c.16-.26.06-.55.15-.81.16-.49.93-.24,1.25-.53.13-.12.15-.11,0-.17a2.61,2.61,0,0,0-.83.06c-.38,0-.35-.14-.64-.32s-.86-.08-1.22-.08a5,5,0,0,0-1.16.08,7.88,7.88,0,0,1-1.67.43,14.72,14.72,0,0,0-1.49-.08,13.82,13.82,0,0,1-1.93,0,2.6,2.6,0,0,0-1.11.11l.05,0c-.48.1-.9.39-1.4.48-.35.07-.72.07-1.06.17s-.5.27-.32.51,1.05.06,1.39.11a2,2,0,0,1,1,.6,1.75,1.75,0,0,1,.28,1c0,.52-.43.86-.68,1.24-.39.58.27,1.36.36,1.94,0,.32.43.43.75.34a2,2,0,0,0,.71-.47c.33-.28.33-.7.69-.95a2.69,2.69,0,0,1,1.17-.38c.95-.19,1.73-.92,2.71-.91.42,0,.85.06,1.28,0,.25,0,.46-.15.13-.29s-.5-.08-.49-.45.23-.27.45-.15.51.41.7.29-.11-.36-.23-.42-.48-.18-.41-.43S195.44,140.44,195.68,140.35Z" transform="translate(-29.78 -18.4)"/><path class="cls-4" d="M196,147.2c.06,0,.06,0,.14,0a1.16,1.16,0,0,1,.27.18.6.6,0,0,0,.59-.05c.11-.07.16,0,.29-.06a1.11,1.11,0,0,0,.3-.12c.09,0,.24,0,.31-.11s0-.09.07-.13.12,0,.13-.06l0,0a.36.36,0,0,0-.14-.1c-.09,0-.13-.11-.25-.1a.86.86,0,0,0-.3.12,1,1,0,0,1-.58,0,.35.35,0,0,0-.3,0,.47.47,0,0,1-.25.13.36.36,0,0,0-.26.12s-.22.13-.16.2S196,147.2,196,147.2Z" transform="translate(-29.78 -18.4)"/><path class="cls-4" d="M197.65,148.14c.16,0,.17-.18.3-.2s.47.15.64,0a.42.42,0,0,0,.12-.42c-.07-.12-.23-.17-.35-.24s-.14-.2-.25-.19h0c-.11-.06-.2.11-.26.17s-.22.08-.22.17.17.07.06.23a.81.81,0,0,0-.17.28C197.52,148,197.52,148.15,197.65,148.14Z" transform="translate(-29.78 -18.4)"/><path class="cls-4" d="M198.79,147c0-.17-.32,0-.34-.09v0c-.06,0-.15,0-.18,0a2.39,2.39,0,0,0,.22.23c.09.05.28.11.25-.08C198.62,147.1,198.69,147,198.79,147Z" transform="translate(-29.78 -18.4)"/><path class="cls-4" d="M199.22,148.44c-.08,0-.29.08-.32.16s.25.08.32.06a4.29,4.29,0,0,0,.59-.24,1,1,0,0,1,.48,0,1,1,0,0,0,.6-.18s.11-.09.09-.15-.07-.06-.1-.1.11-.15.07-.28-.16,0-.24-.06-.2-.17-.25-.29a2.33,2.33,0,0,0-.16-.53.7.7,0,0,0-.34-.18c-.06,0-.2,0-.24-.09s.11-.19.16-.27-.1-.16-.2-.17-.12,0-.15-.05,0-.16-.08-.18-.12,0-.16,0a.51.51,0,0,0-.28.17c-.06.1,0,.26.08.34s.06,0,.08.08,0,.12,0,.19.15.14.27.17.12.06.2.15.1.14.1.29,0,.23-.13.28-.19,0-.28.09,0,.11-.06.17-.1.13-.16.2c.12,0,.55,0,.45.25S199.32,148.42,199.22,148.44Z" transform="translate(-29.78 -18.4)"/><path class="cls-4" d="M227.88,164.11a2.29,2.29,0,0,0,.49-.54,3.66,3.66,0,0,0,.07-1.24c.05-.57.31-.7.81-.93a2.08,2.08,0,0,0,.64-.34c.22-.22.18-.45.31-.68a1.73,1.73,0,0,1,1.31-.6,1.67,1.67,0,0,1,1.4,1.13c.09.19.27.85.49.91s.49-.49.75.05c.11.21,0,.43,0,.64s.29.39.37.62c.15.43-.18.8-.13,1.2s.39.52.53.81a4.72,4.72,0,0,0,1.24,2,1.54,1.54,0,0,0,.26.18c.06-.35.13-.7.18-1.06a3.42,3.42,0,0,0-.19-.42c-.37-.66-1.34-.88-1.31-1.81,0-.4.23-.68.13-1.1a2,2,0,0,1,1.06.67c.11.12.19.36.33.44a.47.47,0,0,0,.25.05c.08-.93.13-1.87.13-2.82a1,1,0,0,1,0-1.29,33.05,33.05,0,0,0-6.75-19,2.83,2.83,0,0,1-.77,0,5,5,0,0,0-1.17-.28c-.43,0-.86.19-1.29.16,0-.38.6-.42.71-.83-.51.05-1-.15-1.56-.11s-.91-.13-1.37-.13-.81.4-1.25.45-1-.12-1.45-.1c.15.76-.7.62-1.32.8.14.7-.69.53-1.07.66.16.46.55.37.5,1-.05.5-.47.93-.8.4s-.06-2.2-1.12-2c-.07.44.92,1.58-.24,1.52-.7,0-1.29-.76-2-.67a3,3,0,0,0,.4.39c-.29.19-.62.07-1,.11s-.49.16-.75.17c-.42,0-.86-.17-1.28,0-.18.07-.24.3-.4.35s-.48-.1-.75,0-.51.47-.81.63c-.71.38-1.33,0-1.87-.52.19-.22,2.19,0,1.93-.49s-1.84-.25-2.27-.36c-.77-.2-1.06-.71-1.92-.63s-2.76.63-3.18,1.62c-.08.18,0,.3-.13.47-.27.36-.78.38-1.19.47s-.38.37-.7.47c0,.32,0,.95.21,1.19s1-.27,1.34-.17.23.28.3.49a1.26,1.26,0,0,0,.57.55.62.62,0,0,0,.73-.21c.13-.21.05-.44.23-.61s.29-.23.32-.48-.16-.24-.36-.44c-.48-.49.55-.75.81-.88a1,1,0,0,0,.33-.25c.06-.08.1-.26.18-.32.26-.17.17.31.11.44-.18.37-.53.75-.13,1.13s.72,0,1.08,0a2.09,2.09,0,0,1,.66,0c.12,0,.35.32.28.45s-.54,0-.68,0-.6-.07-.66,0,.11.15.16.23a.64.64,0,0,1,0,.28c0,.2-.11.39-.34.31s-.28-.25-.45-.12a.81.81,0,0,0-.1.53c0,.16.12.43-.09.56a1.06,1.06,0,0,1-.53,0c-.17,0-.3-.16-.49-.13s-.37.17-.53.22a4.88,4.88,0,0,1-1.38,0c-.08-.18-.23-.4-.17-.62s.26-.34.1-.51a.46.46,0,0,0-.52.07c-.19.21,0,.34,0,.53a.66.66,0,0,1-.05.55c-.15.18-.41.08-.63.12s-.26.06-.32.16,0,.23-.14.31-.4.06-.57.2a9.5,9.5,0,0,1-.92.78,2.47,2.47,0,0,1-.76.22,5.86,5.86,0,0,1-.73.13.59.59,0,0,0,.1.47c.13.16.27.28.39.45.24.38.25.79-.26.93a7.38,7.38,0,0,1-1.4-.07c-.15,0-.46,0-.55.15s.18.41.29.53.24.16.31.26,0,.67-.15.89-.29.27-.31.38c-.08.44.48.7.8.77a2.84,2.84,0,0,0,1.08.13,1.62,1.62,0,0,0,.72-.86c.17-.46.11-.69.56-1,.16-.09.38-.1.52-.26s.13-.43.28-.56.78-.06,1.07-.19c.48-.23.53-.36,1,0s.82.64,1.23.94.2.21.29.56a1.44,1.44,0,0,0,.39.69.9.9,0,0,0,.34-.85h.5c.22-.91-2.12-.88-2-1.94.28-.07.34.1.55.19s.4.06.54.15.21.26.38.41.29.11.43.22c.59.41.05,1.58,1.32,1.49-.44.24,0,.68.13,1,0-.32.3-.54.3-.92s-.22-.53.25-.68c.31-.1.64-.11.94-.21.45-.17.39-.19.26-.64,0-.18-.18-.15-.1-.38s.31-.28.39-.4c.18-.27.28-.81.72-.83s.28.44.54.64a.58.58,0,0,0,.82-.17c-.74-.22.17-.4.39-.51s.34-.38.5-.23-.18.47-.2.57c-.09.45.26.44.56.71a5.53,5.53,0,0,1,.66,1.1,2.81,2.81,0,0,1-1.35-.13c-.52-.24-.72-.44-1.32-.23a3.43,3.43,0,0,0-.55.25c-.05,0-.09.17-.17.21s-.25,0-.34,0c-.47.18-.58.36-1.1.38,0,.21.24.14.32.3s0,.39,0,.53c0,.46,0,.46.52.48a1.64,1.64,0,0,1,1.19.34c.55.39.55-.06,1-.34.5.2,0,.68-.12.94s0,.59-.13.81c-.22.45-1.13.21-1.54.21a2.58,2.58,0,0,1-.88-.05,7.69,7.69,0,0,0-.86-.46c-.45-.12-1.4-.3-1.61.3.08,0,.15.14.21.17-.18.29-.78.11-1-.05a2.13,2.13,0,0,0-.86-.47,1.63,1.63,0,0,1-1.06-.72c-.19-.35-.07-.72-.48-.9a.45.45,0,0,0-.46,0c-.27.1-.21.22-.56.26s-.77,0-1.14,0a2.34,2.34,0,0,0-1,.22c-.17.1-.23.28-.52.33a2.33,2.33,0,0,1-.59,0c-.42,0-1.13-.39-1.47.1-.17.24,0,.37-.29.59s-.51.24-.66.49c-.31.53.17.86-.43,1.23a2.54,2.54,0,0,0-1.15,1.07c-.28.5-.78.85-1,1.37a2.4,2.4,0,0,0,0,1.1c0,.81-.73,1.21-.21,2,.21.32.51.57.69.9s.21.76.36,1.11a4.91,4.91,0,0,0,2.09,1.86,1.2,1.2,0,0,0,1.22-.16,2.3,2.3,0,0,1,1.25-.13c.7,0,1.1-.81,1.91-.42.39.18.34.47.81.55s.79,0,1,.45-.09,1.22-.11,1.81.54.6.75,1.13.15.85.33,1.24a2.16,2.16,0,0,1,.14,2.08,2.42,2.42,0,0,0,0,2.13,6,6,0,0,1,.66,2.35,4.61,4.61,0,0,0,.19,1.14,8.49,8.49,0,0,1,.71,1.23c.12.47-.08.95.13,1.41s.53.39,1,.33a5.73,5.73,0,0,0,2.22-.37,2.13,2.13,0,0,0,.7-.73,2.62,2.62,0,0,1,.87-.82,1.2,1.2,0,0,0,.63-1.05c0-.57-.13-.72.46-1,.37-.19.69-.35.65-.85s-.29-.74-.16-1.15c.31-1,1.75-1.24,2-2.22a7.64,7.64,0,0,0-.3-2.8c-.26-1.74,1.26-2.49,2.36-3.52a8.94,8.94,0,0,0,1.34-2.15c.16-.28.39-.6.25-.93a.78.78,0,0,0-.77-.46,5,5,0,0,1-1.19.21c-.94,0-1-.78-1.74-1.27s-.8-1.2-1.28-1.82c-.33-.43-.21-.64-.25-1.16s-.33-.54-.68-.81a1.32,1.32,0,0,1-.47-.68,6.31,6.31,0,0,1-.51-1.09c-.06-.37.24-.45.51-.23.08.07,0,.28.18.33s.21-.14.32-.19a9.48,9.48,0,0,0,.36,1.26c.15.32.4.63.54,1a1.69,1.69,0,0,0,.56.79,3.42,3.42,0,0,1,.84,1c.26.51.39,1.93,1.07,2.11.32.09.74-.3,1.07-.37a1.52,1.52,0,0,0,1-.51,4.4,4.4,0,0,1,1.33-.81c.27-.13.62-.15.83-.43s.13-.49.23-.72.86-.81.55-1.29-.9-.21-1.07-.84c-.33-.06-.57.2-.83.34a1,1,0,0,1-1,0c-.55-.25-.44-.5-.61-1-.12-.31-.45-.48-.38-.84.62,0,.75.06,1.1.55s.42.63.85.67.75-.2,1.11-.13.59.46,1,.56a8.46,8.46,0,0,1,1.23.17c.15,0,.28.2.43.25s.43-.1.59-.07c.39.06.48.52.72.83s.53.34,1,.39.42.32.47.8a4,4,0,0,0,.51,1.21c.19.41.45.82.6,1.22s.19.83.35,1.24.43.87.88.48C227.65,164.56,227.74,164.27,227.88,164.11Z" transform="translate(-29.78 -18.4)"/><path class="cls-4" d="M236.27,168c-.08-.15-.07-.31-.19-.46a2.39,2.39,0,0,0-.48-.33c-.13-.1-.27-.24-.39-.35s-.26-.54-.58-.62c-.15,0-.59-.08-.6-.3-.08,0-.3-.1-.27.07s.13.13.17.18.11.14.17.21.22.22.33.35.33.25.39.41,0,.15,0,.22a.63.63,0,0,0,.16.24c.1.14.23.26.32.4a1.08,1.08,0,0,1,.1.27,2.24,2.24,0,0,0,.49.91l.09.09c.11-.42.2-.83.29-1.25C236.28,168,236.28,168,236.27,168Z" transform="translate(-29.78 -18.4)"/><g class="cls-5"><path class="cls-4" d="M170.74,162a.37.37,0,0,0-.18-.19q0,.64.06,1.29l.06-.33C170.71,162.53,170.84,162.15,170.74,162Z" transform="translate(-29.78 -18.4)"/><path class="cls-4" d="M172,159.17s0-.07,0-.11l-.39-.07c-.18-.05-.21,0-.38,0s-.22,0-.31,0h0c-.07,0-.39.23-.31.33s.4-.05.5-.11c.33-.21.61-.07.92.05Z" transform="translate(-29.78 -18.4)"/><path class="cls-4" d="M173,160.69v0h0Z" transform="translate(-29.78 -18.4)"/></g><text class="cls-6" transform="translate(215.45 174.23) scale(1.12 1)">L</text><text class="cls-7" transform="matrix(1.46, 0, -0.17, 0.99, 209.36, 210.69)">C<tspan class="cls-8" x="8.44" y="0">O</tspan><tspan class="cls-9" x="17.3" y="0">L</tspan><tspan class="cls-8" x="24.04" y="0">OM</tspan><tspan class="cls-10" x="43.01" y="0">B</tspan><tspan class="cls-11" x="51.41" y="0">I</tspan><tspan class="cls-12" x="54.96" y="0">AN</tspan><tspan class="cls-13" x="72.19" y="0">A</tspan></text><text class="cls-14" transform="matrix(1.33, 0, -0.18, 0.98, 276.85, 237.36)">T<tspan class="cls-15" x="7.44" y="0">E</tspan><tspan class="cls-16" x="14.89" y="0">M</tspan><tspan class="cls-17" x="25.47" y="0">P</tspan><tspan class="cls-18" x="34.14" y="0">O</tspan><tspan class="cls-19" x="43.44" y="0">R</tspan><tspan class="cls-20" x="52.94" y="0">A</tspan><tspan class="cls-21" x="61.56" y="0">L</tspan><tspan class="cls-22" x="68.71" y="0">E</tspan><tspan class="cls-23" x="76.2" y="0">S</tspan></text><text class="cls-24" transform="matrix(1.46, 0, -0.17, 0.99, 361.67, 210.69)">S<tspan class="cls-25" x="8.26" y="0">E</tspan><tspan class="cls-26" x="15.31" y="0">R</tspan><tspan class="cls-27" x="24.13" y="0">V</tspan><tspan class="cls-28" x="32.06" y="0">I</tspan><tspan class="cls-10" x="35.24" y="0">C</tspan><tspan class="cls-28" x="43.64" y="0">I</tspan><tspan class="cls-29" x="46.82" y="0">O</tspan><tspan class="cls-13" x="55.71" y="0">S</tspan></text><text class="cls-30" transform="matrix(1.46, 0, -0.17, 0.99, 332.68, 210.69)">D<tspan class="cls-13" x="8.64" y="0">E</tspan></text><text class="cls-31" transform="translate(351.52 174.23) scale(1.27 1)">S</text><text class="cls-32" transform="translate(244.87 174.24) scale(1.27 1)">S</text><text class="cls-33" transform="translate(281.51 174.23) scale(1.28 1)">E</text><text class="cls-34" transform="translate(313.03 174.16) scale(1.16 1)">T</text><text class="cls-31" transform="translate(395.29 174.23) scale(1.27 1)">S</text><text class="cls-31" transform="translate(372.95 174.23) scale(1.27 1)">A</text><text class="cls-31" transform="translate(366.41 174.23) scale(1.27 1)">.</text><text class="cls-31" transform="translate(389.51 174.23) scale(1.27 1)">.</text></g></g></svg>